<svg xmlns="http://www.w3.org/2000/svg" data-name="Layer 1" viewBox="0 0 100 100" x="0px" y="0px" fill="#fff" ><path d="M72.4,68.32A10.89,10.89,0,1,0,83.29,79.21,10.9,10.9,0,0,0,72.4,68.32Zm0,15.77a4.89,4.89,0,1,1,4.89-4.88A4.89,4.89,0,0,1,72.4,84.09Z"/><path d="M90,23.12H31.19l-1.51-6.31a9,9,0,0,0-8.75-6.9H10a3,3,0,1,0,0,6h11a3,3,0,0,1,2.92,2.3l8.75,36.52a13,13,0,0,0,12.64,10h28.6A12.94,12.94,0,0,0,86.49,54.64L93,26.8A3,3,0,0,0,90,23.12ZM80.65,53.28a7,7,0,0,1-6.82,5.42H45.23a7,7,0,0,1-6.81-5.37l-5.8-24.21H86.26Z"/><path d="M44,68.32A10.89,10.89,0,1,0,54.92,79.21,10.9,10.9,0,0,0,44,68.32Zm0,15.77a4.89,4.89,0,1,1,4.89-4.88A4.89,4.89,0,0,1,44,84.09Z"/></svg>